<svg width="36" height="36" viewBox="0 0 36 36" fill="none" xmlns="http://www.w3.org/2000/svg">
<path d="M7.875 16.875H30.375C30.6734 16.875 30.9595 16.9935 31.1705 17.2045C31.3815 17.4155 31.5 17.7016 31.5 18C31.5 18.2984 31.3815 18.5845 31.1705 18.7955C30.9595 19.0065 30.6734 19.125 30.375 19.125H7.875C7.57663 19.125 7.29048 19.0065 7.07951 18.7955C6.86853 18.5845 6.75 18.2984 6.75 18C6.75 17.7016 6.86853 17.4155 7.07951 17.2045C7.29048 16.9935 7.57663 16.875 7.875 16.875Z" fill="black"/>
<path d="M8.34075 18L17.6715 27.3285C17.8827 27.5397 18.0014 27.8263 18.0014 28.125C18.0014 28.4237 17.8827 28.7103 17.6715 28.9215C17.4603 29.1327 17.1737 29.2514 16.875 29.2514C16.5763 29.2514 16.2897 29.1327 16.0785 28.9215L5.9535 18.7965C5.84873 18.692 5.76561 18.5679 5.70889 18.4312C5.65218 18.2945 5.62299 18.148 5.62299 18C5.62299 17.852 5.65218 17.7055 5.70889 17.5688C5.76561 17.4321 5.84873 17.308 5.9535 17.2035L16.0785 7.0785C16.2897 6.86726 16.5763 6.74858 16.875 6.74858C17.1737 6.74858 17.4603 6.86726 17.6715 7.0785C17.8827 7.28975 18.0014 7.57626 18.0014 7.875C18.0014 8.17375 17.8827 8.46026 17.6715 8.6715L8.34075 18Z" fill="black"/>
</svg>
