<svg width="40" height="40" viewBox="0 0 40 40" fill="none" xmlns="http://www.w3.org/2000/svg">
<g opacity="0.6">
<path fill-rule="evenodd" clip-rule="evenodd" d="M10.1815 10.9791C11.5895 9.49591 12.0871 9.07991 12.6871 8.88631C13.1023 8.77751 13.5378 8.77146 13.9559 8.86871C14.5063 9.02871 14.6519 9.15031 16.4566 10.9487C18.0422 12.5279 18.2006 12.6991 18.3526 13.0079C18.6434 13.55 18.6888 14.1903 18.4774 14.7679C18.3174 15.2079 18.0902 15.4991 17.1286 16.4639L16.5014 17.0928C16.3368 17.2601 16.2981 17.5142 16.4054 17.7232C17.799 20.1005 19.776 22.083 22.1494 23.4832C22.4227 23.6294 22.7592 23.5822 22.9814 23.3664L23.5846 22.7728C23.9574 22.3906 24.3523 22.0306 24.767 21.6944C25.4186 21.2944 26.2302 21.2587 26.9142 21.6C27.2486 21.76 27.359 21.8592 28.9942 23.4912C30.6806 25.1728 30.7286 25.2256 30.9142 25.6112C31.2635 26.2494 31.2598 27.0226 30.9046 27.6576C30.7238 28.016 30.6134 28.1456 29.6646 29.1152C29.0918 29.7008 28.5526 30.2352 28.4662 30.3136C27.6835 30.9616 26.6794 31.2795 25.6662 31.2C23.8128 31.031 22.0187 30.4581 20.4102 29.5216C16.8474 27.6338 13.8141 24.8834 11.5879 21.5216C11.103 20.8179 10.6719 20.0787 10.2983 19.3104C9.29601 17.5925 8.77845 15.635 8.80069 13.6463C8.8772 12.6059 9.37613 11.6422 10.1815 10.9791Z" fill="black"/>
</g>
</svg>
