<svg width="48" height="48" viewBox="0 0 48 48" fill="none" xmlns="http://www.w3.org/2000/svg">
<g clip-path="url(#clip0_2006_116)">
<path d="M48 0H0V48H48V0Z" fill="white"/>
<path fill-rule="evenodd" clip-rule="evenodd" d="M32 23.936V24.064C32 24.9412 32 25.6982 31.9574 26.3248C31.9122 26.9844 31.8132 27.6442 31.5432 28.2962C30.9344 29.7662 29.7662 30.9344 28.296 31.5432C27.6442 31.8132 26.9844 31.9122 26.3248 31.9574C25.6982 32 24.9412 32 24.064 32H23.936C23.0588 32 22.3018 32 21.6752 31.9574C21.0156 31.9122 20.3558 31.8132 19.7039 31.5432C18.2337 30.9344 17.0657 29.7662 16.4567 28.2962C16.1867 27.6442 16.0877 26.9844 16.0427 26.3248C16 25.6982 16 24.9412 16 24.064V23.936C16 23.0588 16 22.3018 16.0427 21.6752C16.0877 21.0156 16.1867 20.3558 16.4567 19.7039C17.0657 18.2337 18.2337 17.0657 19.7039 16.4567C20.3558 16.1867 21.0156 16.0877 21.6752 16.0427C22.3018 16 23.0588 16 23.936 16H24.064C24.9412 16 25.6982 16 26.3248 16.0427C26.9844 16.0877 27.6442 16.1867 28.2962 16.4567C29.7662 17.0657 30.9344 18.2337 31.5432 19.7039C31.8132 20.3558 31.9122 21.0156 31.9574 21.6752C32 22.3018 32 23.0588 32 23.936ZM8 18V30H6C4.89544 30 4 30.8954 4 32C4 33.1046 4.89544 34 6 34H8.02466C8.02962 34.1118 8.03556 34.2202 8.0427 34.3248C8.0877 34.9844 8.18672 35.6442 8.45672 36.2962C9.06568 37.7662 10.2337 38.9344 11.7039 39.5432C12.3558 39.8132 13.0156 39.9122 13.6752 39.9574C13.7799 39.9644 13.8881 39.9704 14 39.9754V42C14 43.1046 14.8954 44 16 44C17.1046 44 18 43.1046 18 42V40H30V42C30 43.1046 30.8954 44 32 44C33.1046 44 34 43.1046 34 42V39.9754C34.1118 39.9704 34.2202 39.9644 34.3248 39.9574C34.9844 39.9122 35.6442 39.8132 36.2962 39.5432C37.7662 38.9344 38.9344 37.7662 39.5432 36.2962C39.8132 35.6442 39.9122 34.9844 39.9574 34.3248C39.9644 34.2202 39.9704 34.1118 39.9754 34H42C43.1046 34 44 33.1046 44 32C44 30.8954 43.1046 30 42 30H40V18H42C43.1046 18 44 17.1046 44 16C44 14.8954 43.1046 14 42 14H39.9754C39.9704 13.8881 39.9644 13.7799 39.9574 13.6752C39.9122 13.0156 39.8132 12.3558 39.5432 11.7039C38.9344 10.2337 37.7662 9.06568 36.2962 8.45672C35.6442 8.18672 34.9844 8.0877 34.3248 8.0427C34.2202 8.03556 34.1118 8.02962 34 8.02466V6C34 4.89544 33.1046 4 32 4C30.8954 4 30 4.89544 30 6V8H18V6C18 4.89544 17.1046 4 16 4C14.8954 4 14 4.89544 14 6V8.02466C13.8881 8.02962 13.7799 8.03556 13.6752 8.0427C13.0156 8.0877 12.3558 8.18672 11.7039 8.45672C10.2337 9.06568 9.06568 10.2337 8.45672 11.7039C8.18672 12.3558 8.0877 13.0156 8.0427 13.6752C8.03556 13.7799 8.02962 13.8881 8.02466 14H6C4.89544 14 4 14.8954 4 16C4 17.1046 4.89544 18 6 18H8Z" fill="#323232"/>
<path fill-rule="evenodd" clip-rule="evenodd" d="M27.9666 21.9476C27.9354 21.4916 27.8822 21.3178 27.8478 21.2346C27.6448 20.7446 27.2554 20.3552 26.7654 20.1522C26.6822 20.1178 26.5084 20.0646 26.0524 20.0334C25.5786 20.001 24.9592 20 24 20C23.0408 20 22.4214 20.001 21.9476 20.0334C21.4916 20.0646 21.3178 20.1178 21.2346 20.1522C20.7446 20.3552 20.3552 20.7446 20.1522 21.2346C20.1178 21.3178 20.0646 21.4916 20.0334 21.9476C20.001 22.4214 20 23.0408 20 24C20 24.9592 20.001 25.5786 20.0334 26.0524C20.0646 26.5084 20.1178 26.6822 20.1522 26.7654C20.3552 27.2554 20.7446 27.6448 21.2346 27.8478C21.3178 27.8822 21.4916 27.9354 21.9476 27.9666C22.4214 27.999 23.0408 28 24 28C24.9592 28 25.5786 27.999 26.0524 27.9666C26.5084 27.9354 26.6822 27.8822 26.7654 27.8478C27.2554 27.6448 27.6448 27.2554 27.8478 26.7654C27.8822 26.6822 27.9354 26.5084 27.9666 26.0524C27.999 25.5786 28 24.9592 28 24C28 23.0408 27.999 22.4214 27.9666 21.9476Z" fill="#323232"/>
</g>
<defs>
<clipPath id="clip0_2006_116">
<rect width="48" height="48" fill="white"/>
</clipPath>
</defs>
</svg>
