<svg width="40" height="40" viewBox="0 0 40 40" fill="none" xmlns="http://www.w3.org/2000/svg">
<path fill-rule="evenodd" clip-rule="evenodd" d="M9.30965 7.64297C8.33333 8.61927 8.33333 10.1906 8.33333 13.3333V28.3333C8.33333 31.476 8.33333 33.0473 9.30965 34.0237C10.2859 35 11.8573 35 15 35H25C28.1427 35 29.714 35 30.6903 34.0237C31.6667 33.0473 31.6667 31.476 31.6667 28.3333V13.3333C31.6667 10.1906 31.6667 8.61927 30.6903 7.64297C29.714 6.66666 28.1427 6.66666 25 6.66666H15C11.8573 6.66666 10.2859 6.66666 9.30965 7.64297ZM15 13.3333C14.0795 13.3333 13.3333 14.0795 13.3333 15C13.3333 15.9205 14.0795 16.6667 15 16.6667H25C25.9205 16.6667 26.6667 15.9205 26.6667 15C26.6667 14.0795 25.9205 13.3333 25 13.3333H15ZM15 20C14.0795 20 13.3333 20.7462 13.3333 21.6667C13.3333 22.5872 14.0795 23.3333 15 23.3333H25C25.9205 23.3333 26.6667 22.5872 26.6667 21.6667C26.6667 20.7462 25.9205 20 25 20H15ZM15 26.6667C14.0795 26.6667 13.3333 27.4128 13.3333 28.3333C13.3333 29.2538 14.0795 30 15 30H21.6667C22.5872 30 23.3333 29.2538 23.3333 28.3333C23.3333 27.4128 22.5872 26.6667 21.6667 26.6667H15Z" fill="#666666"/>
</svg>
